<svg xmlns="http://www.w3.org/2000/svg" viewBox="0 0 512 512"><defs><linearGradient id="wing" x1="0" y1="0" x2="0" y2="1"><stop offset="0" stop-color="#dff1fb"/><stop offset="1" stop-color="#bcdcf5"/></linearGradient></defs><ellipse cx="170" cy="120" rx="64" ry="40" fill="url(#wing)" stroke="#5a4a42" stroke-width="5" opacity="0.9" transform="rotate(-28 170 120)"/><ellipse cx="342" cy="120" rx="64" ry="40" fill="url(#wing)" stroke="#5a4a42" stroke-width="5" opacity="0.9" transform="rotate(28 342 120)"/><path d="M196 70 q-20 -34 -44 -28 m164 28 q20 -34 44 -28" fill="none" stroke="#5a4a42" stroke-width="7" stroke-linecap="round"/><circle cx="150" cy="40" r="11" fill="#5a4a42"/><circle cx="362" cy="40" r="11" fill="#5a4a42"/><path d="M256 470 l-22 -34 h44 Z" fill="#5a4a42"/><ellipse cx="256" cy="280" rx="150" ry="165" fill="#ffd94d" stroke="#5a4a42" stroke-width="7" /><clipPath id="cb"><ellipse cx="256" cy="280" rx="146" ry="161"/></clipPath><g clip-path="url(#cb)"><rect x="100" y="330" width="312" height="44" fill="#4a3d36"/><rect x="100" y="406" width="312" height="44" fill="#4a3d36"/></g><ellipse cx="194" cy="230" rx="30" ry="34.5" fill="#2b2024"/><circle cx="184.4" cy="217.925" r="10.799999999999999" fill="#fff"/><circle cx="203.0" cy="238.625" r="4.8" fill="#fff" opacity="0.9"/><ellipse cx="318" cy="230" rx="30" ry="34.5" fill="#2b2024"/><circle cx="308.4" cy="217.925" r="10.799999999999999" fill="#fff"/><circle cx="327.0" cy="238.625" r="4.8" fill="#fff" opacity="0.9"/><ellipse cx="151" cy="274" rx="24" ry="15" fill="#ffb3c1" opacity="0.8"/><ellipse cx="361" cy="274" rx="24" ry="15" fill="#ffb3c1" opacity="0.8"/><path d="M 230 286 Q 256 300 282 286" fill="none" stroke="#5a4a42" stroke-width="6" stroke-linecap="round"/></svg>