<svg xmlns="http://www.w3.org/2000/svg" viewBox="0 0 512 512"><defs></defs><path d="M150 96 L122 38 L196 70 Z M362 96 L390 38 L316 70 Z" fill="#a9745b" stroke="#5a4a42" stroke-width="7" stroke-linejoin="round"/><ellipse cx="256" cy="256" rx="165" ry="175" fill="#b98970" stroke="#5a4a42" stroke-width="7" /><ellipse cx="110" cy="290" rx="36" ry="80" fill="#a9745b" stroke="#5a4a42" stroke-width="7" transform="rotate(18 110 290)"/><ellipse cx="402" cy="290" rx="36" ry="80" fill="#a9745b" stroke="#5a4a42" stroke-width="7" transform="rotate(-18 402 290)"/><path d="M156 330 q100 70 200 0 l0 60 q-100 60 -200 0 Z" fill="#f3e2c7" stroke="none"/><ellipse cx="256" cy="360" rx="96" ry="62" fill="#f3e2c7" /><circle cx="194" cy="196" r="62" fill="#f6ead2" stroke="#5a4a42" stroke-width="7" /><circle cx="318" cy="196" r="62" fill="#f6ead2" stroke="#5a4a42" stroke-width="7" /><ellipse cx="194" cy="196" rx="27" ry="31.049999999999997" fill="#2b2024"/><circle cx="185.36" cy="185.1325" r="9.719999999999999" fill="#fff"/><circle cx="202.1" cy="203.7625" r="4.32" fill="#fff" opacity="0.9"/><ellipse cx="318" cy="196" rx="27" ry="31.049999999999997" fill="#2b2024"/><circle cx="309.36" cy="185.1325" r="9.719999999999999" fill="#fff"/><circle cx="326.1" cy="203.7625" r="4.32" fill="#fff" opacity="0.9"/><path d="M240 244 q16 -12 32 0 l-16 30 Z" fill="#f7a83d" stroke="#5a4a42" stroke-width="5" stroke-linejoin="round"/><ellipse cx="136" cy="276" rx="24" ry="13" fill="#ffb3c1" opacity="0.8"/><ellipse cx="376" cy="276" rx="24" ry="13" fill="#ffb3c1" opacity="0.8"/><path d="M216 430 v22 m-14 -8 l14 10 l14 -10 M296 430 v22 m-14 -8 l14 10 l14 -10" stroke="#f7a83d" stroke-width="8" fill="none" stroke-linecap="round"/></svg>