<svg xmlns="http://www.w3.org/2000/svg" viewBox="0 0 512 512"><defs></defs><path d="M120 160 L96 70 L188 116 Z" fill="#b8c4d8" stroke="#5a4a42" stroke-width="7" stroke-linejoin="round"/><path d="M392 160 L416 70 L324 116 Z" fill="#b8c4d8" stroke="#5a4a42" stroke-width="7" stroke-linejoin="round"/><path d="M126 150 L112 92 L172 122 Z" fill="#ffb3c1"/><path d="M386 150 L400 92 L340 122 Z" fill="#ffb3c1"/><path d="M380 400 q66 10 64 -52 q-2 -34 -36 -30" fill="none" stroke="#5a4a42" stroke-width="30" stroke-linecap="round"/><path d="M380 400 q66 10 64 -52 q-2 -34 -36 -30" fill="none" stroke="#b8c4d8" stroke-width="18" stroke-linecap="round"/><ellipse cx="256" cy="380" rx="118" ry="88" fill="#b8c4d8" stroke="#5a4a42" stroke-width="7" /><ellipse cx="256" cy="220" rx="158" ry="140" fill="#cfd9e8" stroke="#5a4a42" stroke-width="7" /><ellipse cx="194" cy="206" rx="30" ry="34.5" fill="#2b2024"/><circle cx="184.4" cy="193.925" r="10.799999999999999" fill="#fff"/><circle cx="203.0" cy="214.625" r="4.8" fill="#fff" opacity="0.9"/><ellipse cx="318" cy="206" rx="30" ry="34.5" fill="#2b2024"/><circle cx="308.4" cy="193.925" r="10.799999999999999" fill="#fff"/><circle cx="327.0" cy="214.625" r="4.8" fill="#fff" opacity="0.9"/><ellipse cx="151" cy="250" rx="24" ry="15" fill="#ffb3c1" opacity="0.8"/><ellipse cx="361" cy="250" rx="24" ry="15" fill="#ffb3c1" opacity="0.8"/><path d="M246 246 q10 8 20 0 q-10 14 -20 0 Z" fill="#ffb3c1" stroke="#5a4a42" stroke-width="4"/><path d="M236 268 q10 12 20 2 q10 10 20 -2" fill="none" stroke="#5a4a42" stroke-width="5" stroke-linecap="round"/><path d="M106 240 h-54 M110 264 h-50" stroke="#5a4a42" stroke-width="4" stroke-linecap="round"/><path d="M406 240 h54 M402 264 h50" stroke="#5a4a42" stroke-width="4" stroke-linecap="round"/><ellipse cx="216" cy="440" rx="26" ry="16" fill="#cfd9e8" /><ellipse cx="296" cy="440" rx="26" ry="16" fill="#cfd9e8" /></svg>