<svg xmlns="http://www.w3.org/2000/svg" viewBox="0 0 512 512"><defs></defs><path d="M196 110 q-30 -56 -70 -56 m190 56 q30 -56 70 -56" fill="none" stroke="#5a4a42" stroke-width="7" stroke-linecap="round"/><circle cx="126" cy="56" r="10" fill="#5a4a42"/><circle cx="386" cy="56" r="10" fill="#5a4a42"/><path d="M128 330 q-86 -40 -72 56 q-6 44 30 64" fill="none" stroke="#5a4a42" stroke-width="22" stroke-linecap="round"/><path d="M128 330 q-86 -40 -72 56 q-6 44 30 64" fill="none" stroke="#6fae4e" stroke-width="12" stroke-linecap="round"/><path d="M384 330 q86 -40 72 56 q-6 44 -30 64" fill="none" stroke="#5a4a42" stroke-width="22" stroke-linecap="round"/><path d="M384 330 q86 -40 72 56 q-6 44 -30 64" fill="none" stroke="#6fae4e" stroke-width="12" stroke-linecap="round"/><ellipse cx="256" cy="350" rx="96" ry="110" fill="#8fd45f" stroke="#5a4a42" stroke-width="7" /><path d="M212 300 q44 130 88 0" fill="none" stroke="#5a4a42" stroke-width="5" opacity="0.6"/><ellipse cx="256" cy="200" rx="130" ry="118" fill="#a3de74" stroke="#5a4a42" stroke-width="7" /><ellipse cx="200" cy="188" rx="27" ry="31.049999999999997" fill="#2b2024"/><circle cx="191.36" cy="177.1325" r="9.719999999999999" fill="#fff"/><circle cx="208.1" cy="195.7625" r="4.32" fill="#fff" opacity="0.9"/><ellipse cx="312" cy="188" rx="27" ry="31.049999999999997" fill="#2b2024"/><circle cx="303.36" cy="177.1325" r="9.719999999999999" fill="#fff"/><circle cx="320.1" cy="195.7625" r="4.32" fill="#fff" opacity="0.9"/><ellipse cx="158" cy="228" rx="24" ry="12" fill="#ffb3c1" opacity="0.8"/><ellipse cx="354" cy="228" rx="24" ry="12" fill="#ffb3c1" opacity="0.8"/><path d="M 234 240 Q 256 254 278 240" fill="none" stroke="#5a4a42" stroke-width="6" stroke-linecap="round"/></svg>