<svg xmlns="http://www.w3.org/2000/svg" viewBox="0 0 512 512"><defs></defs><path d="M132 168 L104 56 L210 116 Z M380 168 L408 56 L302 116 Z" fill="#9aa7b8" stroke="#5a4a42" stroke-width="7" stroke-linejoin="round"/><path d="M140 156 L122 84 L192 124 Z M372 156 L390 84 L320 124 Z" fill="#dfe6ee"/><path d="M356 410 q70 6 70 -58 q0 -36 -38 -34" fill="none" stroke="#5a4a42" stroke-width="32" stroke-linecap="round"/><path d="M356 410 q70 6 70 -58 q0 -36 -38 -34" fill="none" stroke="#9aa7b8" stroke-width="20" stroke-linecap="round"/><ellipse cx="256" cy="392" rx="112" ry="80" fill="#9aa7b8" stroke="#5a4a42" stroke-width="7" /><path d="M256 330 l-44 60 q44 36 88 0 Z" fill="#dfe6ee" stroke="none"/><ellipse cx="256" cy="222" rx="158" ry="140" fill="#b4c0cf" stroke="#5a4a42" stroke-width="7" /><path d="M256 250 q-66 0 -76 44 q30 42 76 42 q46 0 76 -42 q-10 -44 -76 -44 Z" fill="#eef2f6" stroke="none"/><ellipse cx="194" cy="200" rx="30" ry="34.5" fill="#2b2024"/><circle cx="184.4" cy="187.925" r="10.799999999999999" fill="#fff"/><circle cx="203.0" cy="208.625" r="4.8" fill="#fff" opacity="0.9"/><ellipse cx="318" cy="200" rx="30" ry="34.5" fill="#2b2024"/><circle cx="308.4" cy="187.925" r="10.799999999999999" fill="#fff"/><circle cx="327.0" cy="208.625" r="4.8" fill="#fff" opacity="0.9"/><ellipse cx="138" cy="246" rx="24" ry="15" fill="#ffb3c1" opacity="0.8"/><ellipse cx="374" cy="246" rx="24" ry="15" fill="#ffb3c1" opacity="0.8"/><ellipse cx="256" cy="276" rx="16" ry="12" fill="#5a4a42"/><path d="M232 304 q24 16 48 0" fill="none" stroke="#5a4a42" stroke-width="6" stroke-linecap="round"/><ellipse cx="214" cy="452" rx="27" ry="15" fill="#9aa7b8" /><ellipse cx="298" cy="452" rx="27" ry="15" fill="#9aa7b8" /></svg>