<svg xmlns="http://www.w3.org/2000/svg" viewBox="0 0 512 512"><defs><radialGradient id="glow"><stop offset="0" stop-color="#fff8c4"/><stop offset="0.45" stop-color="#ffe45e"/><stop offset="1" stop-color="#ffe45e" stop-opacity="0"/></radialGradient><linearGradient id="fw" x1="0" y1="0" x2="0" y2="1"><stop offset="0" stop-color="#e8f4fd"/><stop offset="1" stop-color="#c4def4"/></linearGradient></defs><circle cx="256" cy="392" r="118" fill="url(#glow)"/><line x1="388" y1="392" x2="414" y2="392" stroke="#ffd94d" stroke-width="7" stroke-linecap="round"/><line x1="349" y1="485" x2="368" y2="504" stroke="#ffd94d" stroke-width="7" stroke-linecap="round"/><line x1="256" y1="524" x2="256" y2="550" stroke="#ffd94d" stroke-width="7" stroke-linecap="round"/><line x1="163" y1="485" x2="144" y2="504" stroke="#ffd94d" stroke-width="7" stroke-linecap="round"/><line x1="124" y1="392" x2="98" y2="392" stroke="#ffd94d" stroke-width="7" stroke-linecap="round"/><line x1="163" y1="299" x2="144" y2="280" stroke="#ffd94d" stroke-width="7" stroke-linecap="round"/><line x1="256" y1="260" x2="256" y2="234" stroke="#ffd94d" stroke-width="7" stroke-linecap="round"/><line x1="349" y1="299" x2="368" y2="280" stroke="#ffd94d" stroke-width="7" stroke-linecap="round"/><path d="M208 90 q-26 -44 -62 -40 m220 40 q26 -44 62 -40" fill="none" stroke="#5a4a42" stroke-width="7" stroke-linecap="round"/><circle cx="148" cy="46" r="10" fill="#5a4a42"/><circle cx="364" cy="46" r="10" fill="#5a4a42"/><ellipse cx="156" cy="226" rx="76" ry="42" fill="url(#fw)" stroke="#5a4a42" stroke-width="5" opacity="0.92" transform="rotate(-34 156 226)"/><ellipse cx="356" cy="226" rx="76" ry="42" fill="url(#fw)" stroke="#5a4a42" stroke-width="5" opacity="0.92" transform="rotate(34 356 226)"/><ellipse cx="256" cy="392" rx="84" ry="86" fill="#ffe45e" stroke="#5a4a42" stroke-width="7" /><path d="M236 360 q20 60 40 0 m-60 18 q40 70 80 0" fill="none" stroke="#f0b429" stroke-width="6" stroke-linecap="round" opacity="0.8"/><ellipse cx="256" cy="286" rx="92" ry="64" fill="#5b6e8c" stroke="#5a4a42" stroke-width="7" /><ellipse cx="256" cy="186" rx="122" ry="110" fill="#6d82a3" stroke="#5a4a42" stroke-width="7" /><ellipse cx="204" cy="176" rx="26" ry="29.9" fill="#2b2024"/><circle cx="195.68" cy="165.535" r="9.36" fill="#fff"/><circle cx="211.8" cy="183.475" r="4.16" fill="#fff" opacity="0.9"/><ellipse cx="308" cy="176" rx="26" ry="29.9" fill="#2b2024"/><circle cx="299.68" cy="165.535" r="9.36" fill="#fff"/><circle cx="315.8" cy="183.475" r="4.16" fill="#fff" opacity="0.9"/><ellipse cx="164" cy="214" rx="24" ry="12" fill="#ffb3c1" opacity="0.8"/><ellipse cx="348" cy="214" rx="24" ry="12" fill="#ffb3c1" opacity="0.8"/><path d="M 236 226 Q 256 240 276 226" fill="none" stroke="#5a4a42" stroke-width="6" stroke-linecap="round"/></svg>