<svg xmlns="http://www.w3.org/2000/svg" viewBox="0 0 512 512"><defs></defs><ellipse cx="140" cy="240" rx="52" ry="92" fill="#a9745b" stroke="#5a4a42" stroke-width="7" transform="rotate(14 140 240)"/><ellipse cx="372" cy="240" rx="52" ry="92" fill="#a9745b" stroke="#5a4a42" stroke-width="7" transform="rotate(-14 372 240)"/><ellipse cx="256" cy="388" rx="112" ry="82" fill="#f6ead2" stroke="#5a4a42" stroke-width="7" /><path d="M362 392 q44 -4 40 -42" fill="none" stroke="#5a4a42" stroke-width="26" stroke-linecap="round"/><path d="M362 392 q44 -4 40 -42" fill="none" stroke="#a9745b" stroke-width="14" stroke-linecap="round"/><ellipse cx="256" cy="220" rx="158" ry="142" fill="#f6ead2" stroke="#5a4a42" stroke-width="7" /><path d="M300 96 a 90 90 0 0 1 96 92 l-72 30 Z" fill="#c79166" stroke="none"/><ellipse cx="194" cy="206" rx="30" ry="34.5" fill="#2b2024"/><circle cx="184.4" cy="193.925" r="10.799999999999999" fill="#fff"/><circle cx="203.0" cy="214.625" r="4.8" fill="#fff" opacity="0.9"/><ellipse cx="318" cy="206" rx="30" ry="34.5" fill="#2b2024"/><circle cx="308.4" cy="193.925" r="10.799999999999999" fill="#fff"/><circle cx="327.0" cy="214.625" r="4.8" fill="#fff" opacity="0.9"/><ellipse cx="151" cy="252" rx="24" ry="15" fill="#ffb3c1" opacity="0.8"/><ellipse cx="361" cy="252" rx="24" ry="15" fill="#ffb3c1" opacity="0.8"/><ellipse cx="256" cy="252" rx="17" ry="13" fill="#5a4a42"/><path d="M256 264 v16 m0 0 q-12 14 -26 4 m26 -4 q12 14 26 4" fill="none" stroke="#5a4a42" stroke-width="6" stroke-linecap="round"/><path d="M232 296 q24 18 48 0 q-8 22 -24 22 q-16 0 -24 -22 Z" fill="#a8474f" stroke="#5a4a42" stroke-width="5" stroke-linejoin="round"/><ellipse cx="212" cy="452" rx="28" ry="16" fill="#f6ead2" /><ellipse cx="300" cy="452" rx="28" ry="16" fill="#f6ead2" /></svg>