<svg xmlns="http://www.w3.org/2000/svg" viewBox="0 0 512 512"><defs></defs><path d="M256 96 q-14 -34 6 -44 q-2 22 10 28 q4 -26 24 -26 q-12 14 -8 30 Z" fill="#f7b733" stroke="#5a4a42" stroke-width="5" stroke-linejoin="round"/><ellipse cx="256" cy="250" rx="165" ry="158" fill="#ffd94d" stroke="#5a4a42" stroke-width="7" /><ellipse cx="256" cy="330" rx="92" ry="60" fill="#ffe89b" /><ellipse cx="118" cy="282" rx="38" ry="58" fill="#ffd94d" stroke="#5a4a42" stroke-width="7" transform="rotate(25 118 282)"/><ellipse cx="394" cy="282" rx="38" ry="58" fill="#ffd94d" stroke="#5a4a42" stroke-width="7" transform="rotate(-25 394 282)"/><path d="M236 238 q20 -14 40 0 q-20 26 -40 0 Z" fill="#f78f33" stroke="#5a4a42" stroke-width="5" stroke-linejoin="round"/><ellipse cx="194" cy="210" rx="30" ry="34.5" fill="#2b2024"/><circle cx="184.4" cy="197.925" r="10.799999999999999" fill="#fff"/><circle cx="203.0" cy="218.625" r="4.8" fill="#fff" opacity="0.9"/><ellipse cx="318" cy="210" rx="30" ry="34.5" fill="#2b2024"/><circle cx="308.4" cy="197.925" r="10.799999999999999" fill="#fff"/><circle cx="327.0" cy="218.625" r="4.8" fill="#fff" opacity="0.9"/><ellipse cx="151" cy="252" rx="24" ry="15" fill="#ffb3c1" opacity="0.8"/><ellipse cx="361" cy="252" rx="24" ry="15" fill="#ffb3c1" opacity="0.8"/><path d="M210 405 v34 m-16 -12 l16 12 l16 -12" fill="none" stroke="#f78f33" stroke-width="9" stroke-linecap="round"/><path d="M302 405 v34 m-16 -12 l16 12 l16 -12" fill="none" stroke="#f78f33" stroke-width="9" stroke-linecap="round"/></svg>