<svg xmlns="http://www.w3.org/2000/svg" viewBox="0 0 512 512"><defs></defs><circle cx="176" cy="130" r="52" fill="#8fd45f" stroke="#5a4a42" stroke-width="7" /><circle cx="336" cy="130" r="52" fill="#8fd45f" stroke="#5a4a42" stroke-width="7" /><ellipse cx="256" cy="270" rx="170" ry="150" fill="#8fd45f" stroke="#5a4a42" stroke-width="7" /><ellipse cx="256" cy="340" rx="100" ry="66" fill="#e9f7d9" /><ellipse cx="176" cy="130" rx="34" ry="36" fill="#2b2024"/><circle cx="165" cy="118" r="12" fill="#fff"/><circle cx="186" cy="140" r="5" fill="#fff" opacity="0.9"/><ellipse cx="336" cy="130" rx="34" ry="36" fill="#2b2024"/><circle cx="325" cy="118" r="12" fill="#fff"/><circle cx="346" cy="140" r="5" fill="#fff" opacity="0.9"/><ellipse cx="144" cy="250" rx="24" ry="15" fill="#ffb3c1" opacity="0.8"/><ellipse cx="368" cy="250" rx="24" ry="15" fill="#ffb3c1" opacity="0.8"/><path d="M 198 252 Q 256 288.0 314 252 Q 256 262.0 198 252 Z" fill="#a8474f" stroke="#5a4a42" stroke-width="5" stroke-linejoin="round"/><path d="M150 410 q-30 30 6 38 m200 -38 q30 30 -6 38" fill="none" stroke="#5a4a42" stroke-width="8" stroke-linecap="round"/></svg>