<svg xmlns="http://www.w3.org/2000/svg" viewBox="0 0 512 512"><defs></defs><path d="M158 92 q-8 -44 30 -48 q-4 26 10 40 Z M354 92 q8 -44 -30 -48 q4 26 -10 40 Z" fill="#e8d3a8" stroke="#5a4a42" stroke-width="6" stroke-linejoin="round"/><ellipse cx="118" cy="196" rx="52" ry="34" fill="#f3e8ee" stroke="#5a4a42" stroke-width="7" transform="rotate(20 118 196)"/><ellipse cx="394" cy="196" rx="52" ry="34" fill="#f3e8ee" stroke="#5a4a42" stroke-width="7" transform="rotate(-20 394 196)"/><ellipse cx="256" cy="380" rx="116" ry="84" fill="#f7f2f5" stroke="#5a4a42" stroke-width="7" /><ellipse cx="256" cy="226" rx="160" ry="142" fill="#f7f2f5" stroke="#5a4a42" stroke-width="7" /><path d="M148 124 q40 -28 76 6 q-26 38 -64 30 q-22 -12 -12 -36 Z" fill="#7a7080" stroke="none" opacity="0.85"/><path d="M330 350 q44 -10 60 24 q-16 34 -56 22 Z" fill="#7a7080" stroke="none" opacity="0.85"/><ellipse cx="190" cy="196" rx="30" ry="34.5" fill="#2b2024"/><circle cx="180.4" cy="183.925" r="10.799999999999999" fill="#fff"/><circle cx="199.0" cy="204.625" r="4.8" fill="#fff" opacity="0.9"/><ellipse cx="322" cy="196" rx="30" ry="34.5" fill="#2b2024"/><circle cx="312.4" cy="183.925" r="10.799999999999999" fill="#fff"/><circle cx="331.0" cy="204.625" r="4.8" fill="#fff" opacity="0.9"/><ellipse cx="132" cy="236" rx="24" ry="13" fill="#ffb3c1" opacity="0.8"/><ellipse cx="380" cy="236" rx="24" ry="13" fill="#ffb3c1" opacity="0.8"/><ellipse cx="256" cy="290" rx="78" ry="50" fill="#ffc9d6" stroke="#5a4a42" stroke-width="7" /><ellipse cx="228" cy="288" rx="11" ry="15" fill="#d4708c"/><ellipse cx="284" cy="288" rx="11" ry="15" fill="#d4708c"/><path d="M 236 318 Q 256 328 276 318" fill="none" stroke="#5a4a42" stroke-width="6" stroke-linecap="round"/></svg>