<svg xmlns="http://www.w3.org/2000/svg" viewBox="0 0 1080 1920"><defs><linearGradient id="cielo" x1="0" y1="0" x2="0" y2="1">
  <stop offset="0" stop-color="#1b2350"/><stop offset="0.55" stop-color="#27407a"/>
  <stop offset="1" stop-color="#1f5d63"/></linearGradient><radialGradient id="luna"><stop offset="0" stop-color="#fffbe6"/><stop offset="0.7" stop-color="#fdf3c0"/><stop offset="1" stop-color="#fdf3c0" stop-opacity="0"/></radialGradient><radialGradient id="halo"><stop offset="0" stop-color="#fff8c4" stop-opacity="0.95"/><stop offset="0.4" stop-color="#ffe45e" stop-opacity="0.55"/><stop offset="1" stop-color="#ffe45e" stop-opacity="0"/></radialGradient><radialGradient id="puntito"><stop offset="0" stop-color="#fff8c4"/><stop offset="0.5" stop-color="#ffe45e" stop-opacity="0.8"/><stop offset="1" stop-color="#ffe45e" stop-opacity="0"/></radialGradient><radialGradient id="glowP"><stop offset="0" stop-color="#fff8c4"/><stop offset="0.45" stop-color="#ffe45e"/><stop offset="1" stop-color="#ffe45e" stop-opacity="0"/></radialGradient><linearGradient id="fwP" x1="0" y1="0" x2="0" y2="1"><stop offset="0" stop-color="#e8f4fd"/><stop offset="1" stop-color="#c4def4"/></linearGradient></defs><rect width="1080" height="1920" fill="url(#cielo)"/><circle cx="580" cy="200" r="150" fill="url(#luna)"/><circle cx="580" cy="200" r="92" fill="#fdf3c0"/><circle cx="552" cy="176" r="16" fill="#f3e4a4"/><circle cx="612" cy="222" r="11" fill="#f3e4a4"/><circle cx="576" cy="252" r="7" fill="#f3e4a4"/><circle cx="491" cy="680" r="4.3" fill="#fff" opacity="0.66"/><circle cx="548" cy="712" r="2.5" fill="#fff" opacity="0.68"/><circle cx="672" cy="950" r="2.2" fill="#fff" opacity="0.57"/><circle cx="122" cy="970" r="3.7" fill="#fff" opacity="0.42"/><circle cx="1032" cy="1150" r="3.6" fill="#fff" opacity="0.74"/><circle cx="191" cy="47" r="3.3" fill="#fff" opacity="0.43"/><circle cx="224" cy="311" r="2.1" fill="#fff" opacity="0.66"/><circle cx="479" cy="1008" r="3.3" fill="#fff" opacity="0.75"/><circle cx="540" cy="799" r="3.1" fill="#fff" opacity="0.55"/><circle cx="1048" cy="1185" r="4.1" fill="#fff" opacity="0.79"/><circle cx="352" cy="297" r="2.7" fill="#fff" opacity="0.44"/><circle cx="812" cy="495" r="4.1" fill="#fff" opacity="0.61"/><circle cx="1007" cy="1013" r="2.0" fill="#fff" opacity="0.52"/><circle cx="958" cy="575" r="4.5" fill="#fff" opacity="0.62"/><circle cx="104" cy="760" r="3.9" fill="#fff" opacity="0.55"/><circle cx="119" cy="416" r="4.4" fill="#fff" opacity="0.82"/><circle cx="150" cy="316" r="2.3" fill="#fff" opacity="0.43"/><circle cx="843" cy="236" r="3.4" fill="#fff" opacity="0.65"/><circle cx="224" cy="879" r="2.3" fill="#fff" opacity="0.75"/><circle cx="149" cy="518" r="2.5" fill="#fff" opacity="0.55"/><circle cx="1020" cy="962" r="2.8" fill="#fff" opacity="0.89"/><circle cx="245" cy="488" r="4.1" fill="#fff" opacity="0.75"/><circle cx="132" cy="1178" r="2.5" fill="#fff" opacity="0.54"/><circle cx="818" cy="412" r="2.7" fill="#fff" opacity="0.44"/><circle cx="122" cy="706" r="2.6" fill="#fff" opacity="0.73"/><circle cx="409" cy="556" r="4.4" fill="#fff" opacity="0.67"/><circle cx="616" cy="1036" r="2.5" fill="#fff" opacity="0.48"/><circle cx="957" cy="979" r="2.6" fill="#fff" opacity="0.50"/><circle cx="784" cy="1121" r="2.5" fill="#fff" opacity="0.92"/><circle cx="930" cy="730" r="3.1" fill="#fff" opacity="0.46"/><circle cx="69" cy="1147" r="2.6" fill="#fff" opacity="0.79"/><circle cx="292" cy="986" r="3.5" fill="#fff" opacity="0.56"/><circle cx="209" cy="866" r="2.2" fill="#fff" opacity="0.53"/><circle cx="601" cy="1019" r="3.5" fill="#fff" opacity="0.55"/><circle cx="966" cy="267" r="2.0" fill="#fff" opacity="0.55"/><circle cx="485" cy="100" r="2.4" fill="#fff" opacity="0.60"/><circle cx="614" cy="183" r="2.9" fill="#fff" opacity="0.89"/><circle cx="1030" cy="792" r="3.7" fill="#fff" opacity="0.72"/><path d="M180 286 v28 M166 300 h28" stroke="#fff" stroke-width="3" stroke-linecap="round" opacity="0.8"/><path d="M560 166 v28 M546 180 h28" stroke="#fff" stroke-width="3" stroke-linecap="round" opacity="0.8"/><path d="M340 546 v28 M326 560 h28" stroke="#fff" stroke-width="3" stroke-linecap="round" opacity="0.8"/><path d="M940 506 v28 M926 520 h28" stroke="#fff" stroke-width="3" stroke-linecap="round" opacity="0.8"/><path d="M0 1100 Q200 1000 420 1080 Q640 1160 820 1060 Q960 990 1080 1060 V1920 H0 Z" fill="#1c4a52"/><path d="M0 1260 Q260 1150 520 1240 Q780 1330 1080 1210 V1920 H0 Z" fill="#173f43"/><g transform="translate(-30 60) rotate(30)"><path d="M0 0 Q 80.0 -108.80000000000001 320 0 Q 80.0 108.80000000000001 0 0 Z" fill="#1f5b54"/><path d="M0 0 H294.40000000000003" stroke="#0e2f33" stroke-width="7" stroke-linecap="round"/><path d="M80.0 0 q 19.2 -38.4 38.4 -51.2" stroke="#0e2f33" stroke-width="6" fill="none" stroke-linecap="round"/><path d="M144.0 0 q 19.2 -38.4 38.4 -51.2" stroke="#0e2f33" stroke-width="6" fill="none" stroke-linecap="round"/><path d="M208.0 0 q 19.2 -38.4 38.4 -51.2" stroke="#0e2f33" stroke-width="6" fill="none" stroke-linecap="round"/></g><g transform="translate(-40 210) rotate(10)"><path d="M0 0 Q 90.0 -122.4 360 0 Q 90.0 122.4 0 0 Z" fill="#27746a"/><path d="M0 0 H331.2" stroke="#0e2f33" stroke-width="7" stroke-linecap="round"/><path d="M90.0 0 q 21.599999999999998 -43.199999999999996 43.199999999999996 -57.6" stroke="#0e2f33" stroke-width="6" fill="none" stroke-linecap="round"/><path d="M162.0 0 q 21.599999999999998 -43.199999999999996 43.199999999999996 -57.6" stroke="#0e2f33" stroke-width="6" fill="none" stroke-linecap="round"/><path d="M234.0 0 q 21.599999999999998 -43.199999999999996 43.199999999999996 -57.6" stroke="#0e2f33" stroke-width="6" fill="none" stroke-linecap="round"/></g><g transform="translate(1110 80) rotate(152)"><path d="M0 0 Q 107.5 -146.20000000000002 430 0 Q 107.5 146.20000000000002 0 0 Z" fill="#1f5b54"/><path d="M0 0 H395.6" stroke="#0e2f33" stroke-width="7" stroke-linecap="round"/><path d="M107.5 0 q 25.8 -51.6 51.6 -68.8" stroke="#0e2f33" stroke-width="6" fill="none" stroke-linecap="round"/><path d="M193.5 0 q 25.8 -51.6 51.6 -68.8" stroke="#0e2f33" stroke-width="6" fill="none" stroke-linecap="round"/><path d="M279.5 0 q 25.8 -51.6 51.6 -68.8" stroke="#0e2f33" stroke-width="6" fill="none" stroke-linecap="round"/></g><g transform="translate(1120 260) rotate(168)"><path d="M0 0 Q 125.0 -170.0 500 0 Q 125.0 170.0 0 0 Z" fill="#27746a"/><path d="M0 0 H460.0" stroke="#0e2f33" stroke-width="7" stroke-linecap="round"/><path d="M125.0 0 q 30.0 -60.0 60.0 -80.0" stroke="#0e2f33" stroke-width="6" fill="none" stroke-linecap="round"/><path d="M225.0 0 q 30.0 -60.0 60.0 -80.0" stroke="#0e2f33" stroke-width="6" fill="none" stroke-linecap="round"/><path d="M325.0 0 q 30.0 -60.0 60.0 -80.0" stroke="#0e2f33" stroke-width="6" fill="none" stroke-linecap="round"/></g><g transform="translate(-40 900) rotate(-18)"><path d="M0 0 Q 90.0 -122.4 360 0 Q 90.0 122.4 0 0 Z" fill="#27746a"/><path d="M0 0 H331.2" stroke="#0e2f33" stroke-width="7" stroke-linecap="round"/><path d="M90.0 0 q 21.599999999999998 -43.199999999999996 43.199999999999996 -57.6" stroke="#0e2f33" stroke-width="6" fill="none" stroke-linecap="round"/><path d="M162.0 0 q 21.599999999999998 -43.199999999999996 43.199999999999996 -57.6" stroke="#0e2f33" stroke-width="6" fill="none" stroke-linecap="round"/><path d="M234.0 0 q 21.599999999999998 -43.199999999999996 43.199999999999996 -57.6" stroke="#0e2f33" stroke-width="6" fill="none" stroke-linecap="round"/></g><g transform="translate(1115 980) rotate(198)"><path d="M0 0 Q 95.0 -129.20000000000002 380 0 Q 95.0 129.20000000000002 0 0 Z" fill="#27746a"/><path d="M0 0 H349.6" stroke="#0e2f33" stroke-width="7" stroke-linecap="round"/><path d="M95.0 0 q 22.8 -45.6 45.6 -60.800000000000004" stroke="#0e2f33" stroke-width="6" fill="none" stroke-linecap="round"/><path d="M171.0 0 q 22.8 -45.6 45.6 -60.800000000000004" stroke="#0e2f33" stroke-width="6" fill="none" stroke-linecap="round"/><path d="M247.0 0 q 22.8 -45.6 45.6 -60.800000000000004" stroke="#0e2f33" stroke-width="6" fill="none" stroke-linecap="round"/></g><path d="M250 0 q-30 220 40 420" stroke="#173f43" stroke-width="14" fill="none"/><path d="M250 0 q-30 220 40 420" stroke="#27746a" stroke-width="6" fill="none"/><path d="M760 0 q60 160 10 300" stroke="#173f43" stroke-width="12" fill="none"/><path d="M1080 560 q-220 30 -360 -10" stroke="#5a4a42" stroke-width="34" fill="none" stroke-linecap="round"/><path d="M1080 552 q-220 30 -360 -10" stroke="#7a6354" stroke-width="16" fill="none" stroke-linecap="round"/><circle cx="170" cy="760" r="62" fill="url(#puntito)"/><circle cx="170" cy="760" r="10" fill="#fff8c4"/><circle cx="420" cy="520" r="43" fill="url(#puntito)"/><circle cx="420" cy="520" r="7" fill="#fff8c4"/><circle cx="860" cy="820" r="62" fill="url(#puntito)"/><circle cx="860" cy="820" r="10" fill="#fff8c4"/><circle cx="640" cy="420" r="43" fill="url(#puntito)"/><circle cx="640" cy="420" r="7" fill="#fff8c4"/><circle cx="950" cy="1180" r="62" fill="url(#puntito)"/><circle cx="950" cy="1180" r="10" fill="#fff8c4"/><circle cx="210" cy="1180" r="43" fill="url(#puntito)"/><circle cx="210" cy="1180" r="7" fill="#fff8c4"/><circle cx="540" cy="1340" r="62" fill="url(#puntito)"/><circle cx="540" cy="1340" r="10" fill="#fff8c4"/><path d="M150 1530 Q 360 1380 480 1240 Q 600 1100 540 980" stroke="#ffe45e" stroke-width="8" fill="none" stroke-linecap="round" stroke-dasharray="2 38" opacity="0.85"/><g transform="translate(760 330) scale(0.42 0.42)"><path d="M150 96 L122 38 L196 70 Z M362 96 L390 38 L316 70 Z" fill="#a9745b" stroke="#5a4a42" stroke-width="7" stroke-linejoin="round"/><ellipse cx="256" cy="256" rx="165" ry="175" fill="#b98970" stroke="#5a4a42" stroke-width="7" /><ellipse cx="110" cy="290" rx="36" ry="80" fill="#a9745b" stroke="#5a4a42" stroke-width="7" transform="rotate(18 110 290)"/><ellipse cx="402" cy="290" rx="36" ry="80" fill="#a9745b" stroke="#5a4a42" stroke-width="7" transform="rotate(-18 402 290)"/><path d="M156 330 q100 70 200 0 l0 60 q-100 60 -200 0 Z" fill="#f3e2c7" stroke="none"/><ellipse cx="256" cy="360" rx="96" ry="62" fill="#f3e2c7" /><circle cx="194" cy="196" r="62" fill="#f6ead2" stroke="#5a4a42" stroke-width="7" /><circle cx="318" cy="196" r="62" fill="#f6ead2" stroke="#5a4a42" stroke-width="7" /><ellipse cx="194" cy="196" rx="27" ry="31.049999999999997" fill="#2b2024"/><circle cx="185.36" cy="185.1325" r="9.719999999999999" fill="#fff"/><circle cx="202.1" cy="203.7625" r="4.32" fill="#fff" opacity="0.9"/><ellipse cx="318" cy="196" rx="27" ry="31.049999999999997" fill="#2b2024"/><circle cx="309.36" cy="185.1325" r="9.719999999999999" fill="#fff"/><circle cx="326.1" cy="203.7625" r="4.32" fill="#fff" opacity="0.9"/><path d="M240 244 q16 -12 32 0 l-16 30 Z" fill="#f7a83d" stroke="#5a4a42" stroke-width="5" stroke-linejoin="round"/><ellipse cx="136" cy="276" rx="24" ry="13" fill="#ffb3c1" opacity="0.8"/><ellipse cx="376" cy="276" rx="24" ry="13" fill="#ffb3c1" opacity="0.8"/><path d="M216 430 v22 m-14 -8 l14 10 l14 -10 M296 430 v22 m-14 -8 l14 10 l14 -10" stroke="#f7a83d" stroke-width="8" fill="none" stroke-linecap="round"/></g><g transform="translate(40 1700) rotate(-8)"><path d="M0 0 Q 115.0 -156.4 460 0 Q 115.0 156.4 0 0 Z" fill="#2c8a6e"/><path d="M0 0 H423.20000000000005" stroke="#1c5a47" stroke-width="7" stroke-linecap="round"/><path d="M115.0 0 q 27.599999999999998 -55.199999999999996 55.199999999999996 -73.60000000000001" stroke="#1c5a47" stroke-width="6" fill="none" stroke-linecap="round"/><path d="M207.0 0 q 27.599999999999998 -55.199999999999996 55.199999999999996 -73.60000000000001" stroke="#1c5a47" stroke-width="6" fill="none" stroke-linecap="round"/><path d="M299.0 0 q 27.599999999999998 -55.199999999999996 55.199999999999996 -73.60000000000001" stroke="#1c5a47" stroke-width="6" fill="none" stroke-linecap="round"/></g><g transform="translate(60 1430) scale(0.5 0.5)"><circle cx="176" cy="130" r="52" fill="#8fd45f" stroke="#5a4a42" stroke-width="7" /><circle cx="336" cy="130" r="52" fill="#8fd45f" stroke="#5a4a42" stroke-width="7" /><ellipse cx="256" cy="270" rx="170" ry="150" fill="#8fd45f" stroke="#5a4a42" stroke-width="7" /><ellipse cx="256" cy="340" rx="100" ry="66" fill="#e9f7d9" /><ellipse cx="176" cy="130" rx="34" ry="36" fill="#2b2024"/><circle cx="165" cy="118" r="12" fill="#fff"/><circle cx="186" cy="140" r="5" fill="#fff" opacity="0.9"/><ellipse cx="336" cy="130" rx="34" ry="36" fill="#2b2024"/><circle cx="325" cy="118" r="12" fill="#fff"/><circle cx="346" cy="140" r="5" fill="#fff" opacity="0.9"/><ellipse cx="144" cy="250" rx="24" ry="15" fill="#ffb3c1" opacity="0.8"/><ellipse cx="368" cy="250" rx="24" ry="15" fill="#ffb3c1" opacity="0.8"/><path d="M 198 252 Q 256 288.0 314 252 Q 256 262.0 198 252 Z" fill="#a8474f" stroke="#5a4a42" stroke-width="5" stroke-linejoin="round"/><path d="M150 410 q-30 30 6 38 m200 -38 q30 30 -6 38" fill="none" stroke="#5a4a42" stroke-width="8" stroke-linecap="round"/></g><g transform="translate(981.6 1500) scale(-0.55 0.55)"><path d="M196 110 q-30 -56 -70 -56 m190 56 q30 -56 70 -56" fill="none" stroke="#5a4a42" stroke-width="7" stroke-linecap="round"/><circle cx="126" cy="56" r="10" fill="#5a4a42"/><circle cx="386" cy="56" r="10" fill="#5a4a42"/><path d="M128 330 q-86 -40 -72 56 q-6 44 30 64" fill="none" stroke="#5a4a42" stroke-width="22" stroke-linecap="round"/><path d="M128 330 q-86 -40 -72 56 q-6 44 30 64" fill="none" stroke="#6fae4e" stroke-width="12" stroke-linecap="round"/><path d="M384 330 q86 -40 72 56 q-6 44 -30 64" fill="none" stroke="#5a4a42" stroke-width="22" stroke-linecap="round"/><path d="M384 330 q86 -40 72 56 q-6 44 -30 64" fill="none" stroke="#6fae4e" stroke-width="12" stroke-linecap="round"/><ellipse cx="256" cy="350" rx="96" ry="110" fill="#8fd45f" stroke="#5a4a42" stroke-width="7" /><path d="M212 300 q44 130 88 0" fill="none" stroke="#5a4a42" stroke-width="5" opacity="0.6"/><ellipse cx="256" cy="200" rx="130" ry="118" fill="#a3de74" stroke="#5a4a42" stroke-width="7" /><ellipse cx="200" cy="188" rx="27" ry="31.049999999999997" fill="#2b2024"/><circle cx="191.36" cy="177.1325" r="9.719999999999999" fill="#fff"/><circle cx="208.1" cy="195.7625" r="4.32" fill="#fff" opacity="0.9"/><ellipse cx="312" cy="188" rx="27" ry="31.049999999999997" fill="#2b2024"/><circle cx="303.36" cy="177.1325" r="9.719999999999999" fill="#fff"/><circle cx="320.1" cy="195.7625" r="4.32" fill="#fff" opacity="0.9"/><ellipse cx="158" cy="228" rx="24" ry="12" fill="#ffb3c1" opacity="0.8"/><ellipse cx="354" cy="228" rx="24" ry="12" fill="#ffb3c1" opacity="0.8"/><path d="M 234 240 Q 256 254 278 240" fill="none" stroke="#5a4a42" stroke-width="6" stroke-linecap="round"/></g><circle cx="540" cy="900" r="330" fill="url(#halo)"/><g transform="translate(316 660) scale(0.875)"><circle cx="256" cy="392" r="118" fill="url(#glowP)"/><line x1="388" y1="392" x2="414" y2="392" stroke="#ffd94d" stroke-width="7" stroke-linecap="round"/><line x1="349" y1="485" x2="368" y2="504" stroke="#ffd94d" stroke-width="7" stroke-linecap="round"/><line x1="256" y1="524" x2="256" y2="550" stroke="#ffd94d" stroke-width="7" stroke-linecap="round"/><line x1="163" y1="485" x2="144" y2="504" stroke="#ffd94d" stroke-width="7" stroke-linecap="round"/><line x1="124" y1="392" x2="98" y2="392" stroke="#ffd94d" stroke-width="7" stroke-linecap="round"/><line x1="163" y1="299" x2="144" y2="280" stroke="#ffd94d" stroke-width="7" stroke-linecap="round"/><line x1="256" y1="260" x2="256" y2="234" stroke="#ffd94d" stroke-width="7" stroke-linecap="round"/><line x1="349" y1="299" x2="368" y2="280" stroke="#ffd94d" stroke-width="7" stroke-linecap="round"/><path d="M208 90 q-26 -44 -62 -40 m220 40 q26 -44 62 -40" fill="none" stroke="#5a4a42" stroke-width="7" stroke-linecap="round"/><circle cx="148" cy="46" r="10" fill="#5a4a42"/><circle cx="364" cy="46" r="10" fill="#5a4a42"/><ellipse cx="156" cy="226" rx="76" ry="42" fill="url(#fwP)" stroke="#5a4a42" stroke-width="5" opacity="0.92" transform="rotate(-34 156 226)"/><ellipse cx="356" cy="226" rx="76" ry="42" fill="url(#fwP)" stroke="#5a4a42" stroke-width="5" opacity="0.92" transform="rotate(34 356 226)"/><ellipse cx="256" cy="392" rx="84" ry="86" fill="#ffe45e" stroke="#5a4a42" stroke-width="7" /><path d="M236 360 q20 60 40 0 m-60 18 q40 70 80 0" fill="none" stroke="#f0b429" stroke-width="6" stroke-linecap="round" opacity="0.8"/><ellipse cx="256" cy="286" rx="92" ry="64" fill="#5b6e8c" stroke="#5a4a42" stroke-width="7" /><ellipse cx="256" cy="186" rx="122" ry="110" fill="#6d82a3" stroke="#5a4a42" stroke-width="7" /><ellipse cx="204" cy="176" rx="26" ry="29.9" fill="#2b2024"/><circle cx="195.68" cy="165.535" r="9.36" fill="#fff"/><circle cx="211.8" cy="183.475" r="4.16" fill="#fff" opacity="0.9"/><ellipse cx="308" cy="176" rx="26" ry="29.9" fill="#2b2024"/><circle cx="299.68" cy="165.535" r="9.36" fill="#fff"/><circle cx="315.8" cy="183.475" r="4.16" fill="#fff" opacity="0.9"/><ellipse cx="164" cy="214" rx="24" ry="12" fill="#ffb3c1" opacity="0.8"/><ellipse cx="348" cy="214" rx="24" ry="12" fill="#ffb3c1" opacity="0.8"/><path d="M 236 226 Q 256 240 276 226" fill="none" stroke="#5a4a42" stroke-width="6" stroke-linecap="round"/></g><path d="M0 1780 Q140 1700 280 1780 Q420 1860 560 1780 Q700 1700 840 1780 Q980 1850 1080 1790 V1920 H0 Z" fill="#14333a"/><path d="M40 1900 q-14 -110 8 -136 M64 1905 q6 -94 22 -110" stroke="#1f5b54" stroke-width="9" fill="none" stroke-linecap="round"/><path d="M130 1900 q-14 -80 8 -106 M154 1905 q6 -64 22 -80" stroke="#1f5b54" stroke-width="9" fill="none" stroke-linecap="round"/><path d="M220 1900 q-14 -110 8 -136 M244 1905 q6 -94 22 -110" stroke="#1f5b54" stroke-width="9" fill="none" stroke-linecap="round"/><path d="M310 1900 q-14 -80 8 -106 M334 1905 q6 -64 22 -80" stroke="#1f5b54" stroke-width="9" fill="none" stroke-linecap="round"/><path d="M400 1900 q-14 -110 8 -136 M424 1905 q6 -94 22 -110" stroke="#1f5b54" stroke-width="9" fill="none" stroke-linecap="round"/><path d="M490 1900 q-14 -80 8 -106 M514 1905 q6 -64 22 -80" stroke="#1f5b54" stroke-width="9" fill="none" stroke-linecap="round"/><path d="M580 1900 q-14 -110 8 -136 M604 1905 q6 -94 22 -110" stroke="#1f5b54" stroke-width="9" fill="none" stroke-linecap="round"/><path d="M670 1900 q-14 -80 8 -106 M694 1905 q6 -64 22 -80" stroke="#1f5b54" stroke-width="9" fill="none" stroke-linecap="round"/><path d="M760 1900 q-14 -110 8 -136 M784 1905 q6 -94 22 -110" stroke="#1f5b54" stroke-width="9" fill="none" stroke-linecap="round"/><path d="M850 1900 q-14 -80 8 -106 M874 1905 q6 -64 22 -80" stroke="#1f5b54" stroke-width="9" fill="none" stroke-linecap="round"/><path d="M940 1900 q-14 -110 8 -136 M964 1905 q6 -94 22 -110" stroke="#1f5b54" stroke-width="9" fill="none" stroke-linecap="round"/><path d="M1030 1900 q-14 -80 8 -106 M1054 1905 q6 -64 22 -80" stroke="#1f5b54" stroke-width="9" fill="none" stroke-linecap="round"/></svg>